<?xml version="1.0" standalone="no"?>
<!DOCTYPE svg PUBLIC "-//W3C//DTD SVG 20010904//EN"
 "http://www.w3.org/TR/2001/REC-SVG-20010904/DTD/svg10.dtd">
<svg version="1.0" xmlns="http://www.w3.org/2000/svg"
 width="1000.000000pt" height="1000.000000pt" viewBox="0 0 1000.000000 1000.000000"
 preserveAspectRatio="xMidYMid meet">
<metadata>
Created by potrace 1.11, written by Peter Selinger 2001-2013
</metadata>
<g transform="translate(0.000000,1000.000000) scale(0.100000,-0.100000)"
fill="#000000" stroke="none">
<path d="M4645 9890 c-126 -10 -226 -20 -255 -25 -37 -7 -79 -13 -135 -20 -90
-11 -307 -56 -467 -95 -516 -129 -1063 -373 -1518 -679 -90 -61 -319 -227
-330 -240 -3 -3 -45 -39 -93 -80 -509 -424 -931 -960 -1236 -1569 -205 -410
-385 -961 -445 -1362 -56 -376 -65 -513 -61 -880 2 -173 6 -328 8 -345 3 -16
8 -61 11 -100 14 -142 53 -390 87 -545 147 -663 425 -1280 827 -1836 318 -439
750 -855 1223 -1177 265 -180 659 -389 924 -489 197 -75 389 -141 446 -153 9
-2 47 -12 85 -24 112 -33 334 -82 439 -97 17 -2 55 -9 85 -14 68 -12 101 -16
275 -36 235 -26 814 -26 975 0 14 3 52 7 85 11 170 18 557 90 675 125 19 6 43
13 53 15 26 6 208 62 297 92 79 27 356 135 387 152 10 5 79 38 153 74 289 139
623 345 845 522 28 22 68 54 89 70 21 17 44 35 50 40 6 6 43 37 81 70 115 98
285 262 411 398 195 210 388 465 551 727 95 153 119 196 217 390 283 561 454
1179 503 1815 10 128 10 631 0 755 -50 630 -220 1248 -497 1800 -389 777 -953
1417 -1670 1897 -610 408 -1342 687 -2040 778 -25 3 -56 8 -70 10 -14 2 -61 7
-105 11 -44 3 -89 8 -100 11 -35 8 -666 11 -760 3z m620 -1734 c17 -3 46 -9
65 -12 19 -3 46 -8 60 -10 287 -51 636 -214 875 -407 71 -58 253 -241 310
-312 126 -157 245 -368 318 -565 36 -96 84 -268 92 -331 3 -19 7 -45 10 -59
19 -95 26 -371 12 -505 -43 -424 -226 -841 -502 -1144 -27 -31 -183 -190 -345
-354 -162 -164 -296 -302 -298 -306 -1 -4 131 -68 295 -141 399 -178 390 -174
538 -245 137 -65 368 -193 373 -207 2 -4 8 -8 13 -8 5 0 55 -31 111 -70 417
-283 759 -631 1044 -1061 l106 -159 -34 -42 c-113 -144 -396 -425 -557 -554
-13 -10 -38 -31 -55 -45 -279 -231 -738 -498 -1093 -635 -37 -14 -81 -32 -98
-39 -63 -27 -371 -122 -455 -140 -8 -2 -53 -12 -100 -23 -95 -23 -230 -48
-305 -58 -27 -3 -58 -8 -67 -9 -9 -2 -48 -7 -85 -11 -37 -3 -79 -8 -93 -10
-159 -21 -631 -21 -795 0 -16 2 -63 7 -103 11 -41 3 -83 8 -95 11 -12 2 -39 6
-62 10 -362 52 -793 181 -1160 348 -44 20 -87 40 -95 45 -8 5 -44 24 -79 42
-198 99 -526 310 -692 446 -171 140 -220 184 -364 328 -138 138 -204 208 -218
232 -4 7 3 29 15 50 13 21 29 47 35 58 94 162 282 421 418 574 106 120 328
334 443 427 13 10 38 31 55 46 18 15 35 28 38 28 3 0 19 11 35 25 38 33 292
202 369 246 164 93 202 111 595 296 41 20 138 66 216 103 77 37 159 75 182 85
23 11 42 22 42 25 0 3 -120 123 -267 266 -430 419 -486 479 -598 650 -147 222
-261 507 -299 744 -3 19 -8 49 -11 65 -27 147 -26 447 1 610 73 441 258 802
573 1115 307 307 639 479 1086 564 11 2 49 7 85 11 36 4 67 9 69 11 6 6 413
-3 446 -10z"/>
</g>
</svg>
